<svg id="Layer_1" data-name="Layer 1" xmlns="http://www.w3.org/2000/svg" viewBox="0 0 1056.25 782.31"><defs><style>.cls-1{fill:#ebf3ff;}.cls-2{fill:#4a0945;}.cls-3{fill:#2b022b;}.cls-4{fill:#ff94a9;}.cls-5{fill:#fff;}.cls-6{fill:#eaeaea;}.cls-23,.cls-7{fill:#4ca1ff;}.cls-8{fill:#90a6ff;}.cls-9{fill:#c7ddff;}.cls-10,.cls-12,.cls-13,.cls-15,.cls-16,.cls-22,.cls-24,.cls-25{fill:none;}.cls-10{stroke:#0063bc;}.cls-10,.cls-12,.cls-13,.cls-16,.cls-22,.cls-25{stroke-linecap:round;}.cls-10,.cls-12,.cls-16,.cls-22,.cls-25{stroke-linejoin:round;}.cls-10,.cls-22{stroke-width:1.08px;}.cls-11{fill:#d9568e;}.cls-12{stroke:#d9568e;}.cls-12,.cls-13,.cls-15,.cls-24{stroke-width:0.54px;}.cls-13{stroke:#4a0945;}.cls-13,.cls-15,.cls-24{stroke-miterlimit:10;}.cls-14,.cls-18{fill:#6d4aff;}.cls-14,.cls-15,.cls-23,.cls-24{isolation:isolate;}.cls-14,.cls-15{opacity:0.41;}.cls-15{stroke:#6d4aff;}.cls-16,.cls-25{stroke:#fff;}.cls-16{stroke-width:1.62px;}.cls-17{fill:#a275ff;}.cls-19{fill:#cab1ff;}.cls-20{fill:#8136ff;}.cls-21{fill:#c1b0ff;}.cls-22{stroke:#6d38c9;}.cls-23,.cls-24{opacity:0.45;}.cls-24{stroke:#4ca1ff;}.cls-25{stroke-width:0.97px;}.cls-26{fill:#0063bc;}.cls-27{fill:#80c3ff;}</style></defs><g id="Group_1485" data-name="Group 1485"><path id="Path_2304" data-name="Path 2304" class="cls-1" d="M177.21,220.76c216.85-179.07,316.47,27.63,461.66,68.91s271.22-15.32,326,185.7-213.81,435.43-504.16,389S-22.79,385.9,177.21,220.76Z" transform="translate(-11.74 -148.85)"/><g id="Group_1462" data-name="Group 1462"><path id="Path_2305" data-name="Path 2305" class="cls-2" d="M634,200.31c-15.19-25.34-70.44-23.74-77.52,8.22s-44.06,35.62-40.18,56.62-28.54,4.57-32,36.3S549.34,393.28,620.69,356s17.47-68.28,23.41-87.35,13.76-32.3,5.4-40.3S652.11,203.73,634,200.31Z" transform="translate(-11.74 -148.85)"/><g id="Group_1457" data-name="Group 1457"><path id="Path_2306" data-name="Path 2306" class="cls-3" d="M643.24,840.49l-.08.18,0-.18Z" transform="translate(-11.74 -148.85)"/><g id="Group_1455" data-name="Group 1455"><path id="Path_2307" data-name="Path 2307" class="cls-4" d="M715.19,864.36l-17,20.19-59.82-9.62c1.7-14.23,4.47-32.28,4.78-34.27l.08-.18h45.37S700.58,851,715.19,864.36Z" transform="translate(-11.74 -148.85)"/><path id="Path_2308" data-name="Path 2308" class="cls-3" d="M767.39,918.8c-2.51,6.84-65.53-8.91-84.47-12.79s-45.68-6.39-45.89-15.3a141.33,141.33,0,0,1,1.36-15.78l59.82,9.62,17-20.19C738.66,885.81,768.94,914.57,767.39,918.8Z" transform="translate(-11.74 -148.85)"/></g><g id="Group_1456" data-name="Group 1456"><path id="Path_2309" data-name="Path 2309" class="cls-4" d="M612.21,792.24,586,794.8l-36-48.72c11.17-9,25.77-20,27.38-21.15l.18-.08,32.43,31.74S611.11,772.48,612.21,792.24Z" transform="translate(-11.74 -148.85)"/><path id="Path_2310" data-name="Path 2310" class="cls-3" d="M611.45,867.65c-6.58,3.13-40.61-52.19-51.43-68.22s-28.17-36.51-22.1-43a138.82,138.82,0,0,1,12-10.33l36,48.72,26.25-2.56C614,824,615.51,865.72,611.45,867.65Z" transform="translate(-11.74 -148.85)"/></g><path id="Path_2311" data-name="Path 2311" class="cls-3" d="M638.76,436.54s86.46,129.8,93.15,152.93-118.72,179-118.72,179-48.71-31.66-46.27-39,88.14-136.73,88.14-136.73S568,479.28,574.47,460.4,608.06,422,608.06,422" transform="translate(-11.74 -148.85)"/><path id="Path_2312" data-name="Path 2312" class="cls-2" d="M516.25,448.81c-12.79,91,45.87,154.31,91.12,212.15,8.72,91.32,30.64,196.65,32.47,194.82s54.79-7.3,53-13.39-11-196.65-16.44-211.87-82.8-190.24-82.8-190.24l-60,15.63" transform="translate(-11.74 -148.85)"/></g><g id="Group_1460" data-name="Group 1460"><path id="Path_2313" data-name="Path 2313" class="cls-4" d="M742.35,455.62c1.75-21.19,3.12-33.17-5-22.36s-10,20.4-10,20.4" transform="translate(-11.74 -148.85)"/><path id="Path_2314" data-name="Path 2314" class="cls-5" d="M553.89,462.3l2.74-38.25,1.09-15.21,1.25-17.7L560.06,376l1.27-17.7,1.08-15.2,1.21-16.83,4.46-37.65L607.31,291l22.18,30.9s1,5.6,2.52,14.51c.74,4.28,1.58,9.32,2.51,14.86.89,5.37,1.85,11.21,2.82,17.31.79,4.83,1.57,9.83,2.35,14.86.89,5.78,1.77,11.62,2.6,17.33.74,5.12,1.43,10.12,2.07,14.9,1.17,8.81,2.11,16.86,2.67,23.36C650.07,474.49,608.68,461.38,553.89,462.3Z" transform="translate(-11.74 -148.85)"/><path id="Path_2315" data-name="Path 2315" class="cls-6" d="M644.36,415.66l-87.73,8.39,1.08-15.2,84.58-8.09C643,405.87,643.73,410.88,644.36,415.66Z" transform="translate(-11.74 -148.85)"/><path id="Path_2316" data-name="Path 2316" class="cls-6" d="M639.69,383.43,559,391.14,560.06,376l77.28-7.38C638.13,373.4,638.92,378.4,639.69,383.43Z" transform="translate(-11.74 -148.85)"/><path id="Path_2317" data-name="Path 2317" class="cls-6" d="M634.52,351.26l-73.19,7,1.08-15.19L632,336.4C632.75,340.68,633.6,345.71,634.52,351.26Z" transform="translate(-11.74 -148.85)"/><path id="Path_2318" data-name="Path 2318" class="cls-4" d="M735.5,424.23l-30.66,19.83L665.2,384c8.19-14.08,21.47-23.88,30.9-29.51C712.25,382.47,735.5,424.23,735.5,424.23Z" transform="translate(-11.74 -148.85)"/><path id="Path_2319" data-name="Path 2319" class="cls-7" d="M696.1,354.48c-9.43,5.63-22.71,15.43-30.9,29.51l-9-13.63c.57.95,4.07,8.11-3,32.37-7.61,26.27,5.18,59.45,4.27,58.84S638,443.82,631.93,416.16s-18.78-113.9-29-128.31c46.22,6.29,72.7,34.82,78.64,42.48C683.35,332.65,689.05,342.25,696.1,354.48Z" transform="translate(-11.74 -148.85)"/><path id="Path_2320" data-name="Path 2320" class="cls-7" d="M510.91,406.47S483.07,368.72,494,332.19s71.74-44.34,71.74-44.34S585,333.72,581.39,392.32s-24,127.09-30.13,125.26S496.53,501,491.47,480.05C493.72,466.44,515.92,422.3,510.91,406.47Z" transform="translate(-11.74 -148.85)"/><g id="Group_1459" data-name="Group 1459"><path id="Path_2321" data-name="Path 2321" class="cls-8" d="M663.12,473.94l35.32-79a5.37,5.37,0,0,1,5.43-2.74l47.44,6.56c2.18.3,6.31,5,5.49,6.8l-38.33,76a5.37,5.37,0,0,1-5.43,2.74l-46.08-3C664.78,481,662.31,475.76,663.12,473.94Z" transform="translate(-11.74 -148.85)"/><g id="Group_1458" data-name="Group 1458"><path id="Path_2322" data-name="Path 2322" class="cls-9" d="M668.35,481.77l47.44,6.56a5.39,5.39,0,0,0,5.43-2.75l35.32-79c.81-1.82-.3-3.54-2.48-3.84l-47.44-6.56a5.39,5.39,0,0,0-5.43,2.75l-35.32,79C665.06,479.75,666.17,481.47,668.35,481.77Z" transform="translate(-11.74 -148.85)"/><path id="Path_2323" data-name="Path 2323" class="cls-2" d="M738.38,424.18h0a5.61,5.61,0,0,0,5.66-2.87l4.09-9.15c.85-1.9-.31-3.7-2.58-4h0a5.61,5.61,0,0,0-5.67,2.86l-4.09,9.16C734.94,422.07,736.1,423.86,738.38,424.18Z" transform="translate(-11.74 -148.85)"/></g></g><path id="Path_2324" data-name="Path 2324" class="cls-4" d="M510.91,406.47c10.51-19.48,36.39-22.83,36.39-22.83l18.46,42.92,84.12,14.59s8.83-6.25,14.2-6.94,20.43-9.82,24.2-7.76-11.07,16-11.07,16a145.49,145.49,0,0,0,16.09,2.39c9.48.91,21.35-3.65,20.21,2.06s-15.3,24.2-27.86,24.88-36.53-5.63-36.53-5.63l-93.48-1.65A23.85,23.85,0,0,1,535,451.83Z" transform="translate(-11.74 -148.85)"/><line id="Line_16" data-name="Line 16" class="cls-10" x1="535.56" y1="234.79" x2="521.86" y2="196.72"/><path id="Path_2325" data-name="Path 2325" class="cls-10" d="M656.2,370.36C642,348.48,640,330.67,640,330.67" transform="translate(-11.74 -148.85)"/><path id="Path_2326" data-name="Path 2326" class="cls-4" d="M724.57,478.09c-11.72-1.53-8-16.37-8-23.83s.16-14.15,4.12-14.61,16,8.22,19.63,7.92S746.18,464.24,724.57,478.09Z" transform="translate(-11.74 -148.85)"/></g><g id="Group_1461" data-name="Group 1461"><path id="Path_2327" data-name="Path 2327" class="cls-4" d="M607.37,275.27c-1,5-1.71,10.48-2.37,15-.15,1.08-.31,2.1-.45,3.05a48.17,48.17,0,0,1-1.17,6.3c-1,3.07-8.78,9.29-19.5,4.58s-18-10.07-18.12-16.35c0,0,5.94-19,7.86-31.5.19-1.28.34-2.5.46-3.63s.14-2.05.13-2.92l2.46,1.88,1.52,1.17Z" transform="translate(-11.74 -148.85)"/><path id="Path_2328" data-name="Path 2328" class="cls-11" d="M607.38,275.27c-1,5-1.72,10.48-2.37,15l-.45,3.05c-22.64,5.31-30.9-11.49-30.94-37,0-1.2,0-2.41,0-3.64h.41l4.11.13Z" transform="translate(-11.74 -148.85)"/><path id="Path_2329" data-name="Path 2329" class="cls-4" d="M634,218.94c-21.73,19.21-52.61,10.11-52.61,10.11s-.35,19.6-3,21.55-.4-16.12-11.84-14.36-5.19,23,6.83,20c0,0,7.89,29.56,33.42,28.37S632.73,255.94,634,218.94Z" transform="translate(-11.74 -148.85)"/><path id="Path_2330" data-name="Path 2330" class="cls-5" d="M607.74,269.7a5.71,5.71,0,1,1-11.38-.89s0-.08,0-.12Z" transform="translate(-11.74 -148.85)"/><path id="Path_2331" data-name="Path 2331" class="cls-12" d="M568.88,251.33c5.1-.11,2.91-9.76-2.38-8.21" transform="translate(-11.74 -148.85)"/><path id="Path_2332" data-name="Path 2332" class="cls-12" d="M610.35,245.29c.21.39,3.14,6.52,5.27,11a3.75,3.75,0,0,1-1.77,5,3.82,3.82,0,0,1-1.15.34l-6.71.84" transform="translate(-11.74 -148.85)"/><path id="Path_2333" data-name="Path 2333" class="cls-2" d="M595.23,251a2.4,2.4,0,1,0,2.86-1.83h0A2.39,2.39,0,0,0,595.23,251Z" transform="translate(-11.74 -148.85)"/><path id="Path_2334" data-name="Path 2334" class="cls-2" d="M621.57,248.71a2.4,2.4,0,1,0,2.87-1.82h0A2.4,2.4,0,0,0,621.57,248.71Z" transform="translate(-11.74 -148.85)"/><path id="Path_2335" data-name="Path 2335" class="cls-13" d="M602.05,242.43s-6.06-3.53-10.21,1.48" transform="translate(-11.74 -148.85)"/><path id="Path_2336" data-name="Path 2336" class="cls-13" d="M628.13,241.4s-6.06-3.53-10.21,1.47" transform="translate(-11.74 -148.85)"/></g></g><g id="Group_1468" data-name="Group 1468"><g id="Group_1464" data-name="Group 1464"><path id="Path_2337" data-name="Path 2337" class="cls-14" d="M970.5,460.33l-171.86,33c-3.73.71-6.17-1.48-5.45-4.91L816,379.5c.72-3.43,4.32-6.79,8-7.51l171.85-33c3.73-.71,6.17,1.49,5.45,4.91l-22.8,108.93C977.82,456.25,974.22,459.61,970.5,460.33Z" transform="translate(-11.74 -148.85)"/><path id="Path_2338" data-name="Path 2338" class="cls-15" d="M977.8,468.39,806,501.39c-3.73.72-6.17-1.48-5.45-4.91l22.8-108.92c.72-3.43,4.32-6.78,8.05-7.5l171.85-33c3.72-.72,6.16,1.48,5.45,4.91l-22.8,108.92C985.13,464.32,981.53,467.68,977.8,468.39Z" transform="translate(-11.74 -148.85)"/><g id="Group_1463" data-name="Group 1463"><path id="Path_2339" data-name="Path 2339" class="cls-16" d="M824.89,440.81c17.49-3.37,16.54,10.12,32.58,7s21.44-26.64,33.1-28.88,7,8.95,16.47,7.13,8.5-19.43,27.7-23.12,16.84-22.54,43.33-27.62" transform="translate(-11.74 -148.85)"/><line id="Line_17" data-name="Line 17" class="cls-16" x1="823.49" y1="242.57" x2="837.59" y2="239.86"/><line id="Line_18" data-name="Line 18" class="cls-16" x1="821.38" y1="252.63" x2="847.63" y2="247.59"/></g></g><g id="Group_1465" data-name="Group 1465"><path id="Path_2340" data-name="Path 2340" class="cls-17" d="M862,688.47,805.7,710l-48.8-44.33,56.28-21.55Z" transform="translate(-11.74 -148.85)"/><path id="Path_2341" data-name="Path 2341" class="cls-18" d="M878,630.39,862,688.47l-48.8-44.33,16.06-58.07Z" transform="translate(-11.74 -148.85)"/><path id="Path_2342" data-name="Path 2342" class="cls-19" d="M756.9,665.69l16.55-57.64,55.79-22-16.06,58.08Z" transform="translate(-11.74 -148.85)"/></g><g id="Group_1466" data-name="Group 1466"><path id="Path_2343" data-name="Path 2343" class="cls-17" d="M961.6,600.58l-12.05-59.05,51.71-40.89,12.06,59Z" transform="translate(-11.74 -148.85)"/><path id="Path_2344" data-name="Path 2344" class="cls-18" d="M1016.28,625.92,961.6,600.58l51.72-40.89L1068,585Z" transform="translate(-11.74 -148.85)"/><path id="Path_2345" data-name="Path 2345" class="cls-19" d="M1001.26,500.64l54.16,25.75L1068,585l-54.67-25.34Z" transform="translate(-11.74 -148.85)"/></g><g id="Group_1467" data-name="Group 1467"><path id="Path_2346" data-name="Path 2346" class="cls-14" d="M812.52,575.68,686.15,600c-4.3.83-7.11-1.7-6.28-5.65l22.7-108.46c.82-3.95,5-7.82,9.27-8.64l126.37-24.27c4.3-.82,7.11,1.71,6.28,5.66L821.79,567C821,571,816.81,574.86,812.52,575.68Z" transform="translate(-11.74 -148.85)"/><path id="Path_2347" data-name="Path 2347" class="cls-15" d="M803.1,565.19,676.73,589.46c-4.29.82-7.1-1.71-6.27-5.66l22.7-108.45c.82-4,5-7.82,9.27-8.65L828.8,442.43c4.29-.82,7.11,1.71,6.28,5.66l-22.7,108.45C811.55,560.49,807.4,564.36,803.1,565.19Z" transform="translate(-11.74 -148.85)"/><path id="Path_2348" data-name="Path 2348" class="cls-5" d="M802,518.79c-4.24,20.24-25.52,40.07-47.51,44.29s-36.42-8.75-32.18-29,25.5-40.06,47.51-44.29l-7.66,36.64,35.79-29C802.21,502.67,803.86,510.05,802,518.79Z" transform="translate(-11.74 -148.85)"/><path id="Path_2349" data-name="Path 2349" class="cls-18" d="M798,497.45l-35.8,29,7.67-36.64C782.36,487.4,792.4,490.56,798,497.45Z" transform="translate(-11.74 -148.85)"/></g><path id="Path_2350" data-name="Path 2350" class="cls-15" d="M678.1,547.28,742,416.16l94.4-37.06" transform="translate(-11.74 -148.85)"/><path id="Path_2351" data-name="Path 2351" class="cls-15" d="M756.9,665.69,742,416.16,878,630.39" transform="translate(-11.74 -148.85)"/><path id="Path_2352" data-name="Path 2352" class="cls-15" d="M1001.26,500.64,742,416.16,961.6,600.58" transform="translate(-11.74 -148.85)"/></g><g id="Group_1477" data-name="Group 1477"><g id="Group_1469" data-name="Group 1469"><path id="Path_2353" data-name="Path 2353" class="cls-20" d="M263.91,806.87s12,97.44,15.63,99.76,51.9-103.54,48.7-107.08-28-24.8-28-24.8" transform="translate(-11.74 -148.85)"/><path id="Path_2354" data-name="Path 2354" class="cls-17" d="M242.21,834.22s-31,93.15-28.71,96.8,91.32-71.23,89.95-75.8-14.61-34.39-14.61-34.39" transform="translate(-11.74 -148.85)"/><path id="Path_2355" data-name="Path 2355" class="cls-3" d="M289.5,492.87s-46,105.74-50.94,126.74S276.8,801.35,276.8,801.35L310.61,784l-8.52-156.77,52.05-122.34" transform="translate(-11.74 -148.85)"/><path id="Path_2356" data-name="Path 2356" class="cls-2" d="M348.59,509.05s-132.35,93.82-149.4,112.69,43,212.48,43,212.48,48.47-12.18,46.63-13.39-23-163.05-23-163.05S390.36,607.13,408,575.47s17-62.09,17-62.09" transform="translate(-11.74 -148.85)"/></g><g id="Group_1475" data-name="Group 1475"><path id="Path_2357" data-name="Path 2357" class="cls-11" d="M304.23,413.93c-13.83,15.32-32,35.38-33.42,36.51-2.28,1.82-62.11,6.24-62.11,6.24l1.89-32.27,41.95-7.08s10.94-16.32,25.08-34.84C293.22,391.25,301.07,406.27,304.23,413.93Z" transform="translate(-11.74 -148.85)"/><path id="Path_2358" data-name="Path 2358" class="cls-17" d="M452.48,466c-2.7,2.36-5.51,4.57-8.39,6.62,0,0-1.08,2.74-2.68,7-1.05,2.74-2.3,6.06-3.64,9.66-1.75,4.71-3.62,9.84-5.29,14.66-2.84,8.15-5.12,15.4-5.27,18-.47,7.3-30.83,9.82-63.71,1.6s-78.76-29.9-78.3-35.16C285.56,484.2,294.64,472,300,463h0c1-1.73,1.91-3.34,2.58-4.77.26-.54.47-1,.65-1.51.82-2.13,2.33-7.16,4.11-13.44.95-3.34,2-7,3-10.83,1.4-5.13,2.83-10.44,4.16-15.36,2.9-10.93,5.23-19.91,5.37-20.46l-.06.06c-.81.89-7.43,8.27-15.58,17.29-.24-.58-.5-1.21-.8-1.88-3.6-8-11.39-21.47-25.81-29.56,16.45-21.53,37.26-46.07,50.26-51.46,24.2-10.05,80.59,2.74,80.59,2.74l8.69.91s49.31,10.66,66.36,38.66C499.13,399,481.82,440.45,452.48,466Z" transform="translate(-11.74 -148.85)"/><g id="Group_1472" data-name="Group 1472"><g id="Group_1470" data-name="Group 1470"><path id="Path_2359" data-name="Path 2359" class="cls-21" d="M437.77,489.19c-1.75,4.71-3.62,9.84-5.29,14.66-36.54-7-88.65-22.85-129.91-45.66.26-.54.47-1,.66-1.51.81-2.14,2.33-7.16,4.11-13.44C349,467,402.72,482.68,437.77,489.19Z" transform="translate(-11.74 -148.85)"/></g><g id="Group_1471" data-name="Group 1471"><path id="Path_2360" data-name="Path 2360" class="cls-21" d="M452.48,466c-2.7,2.36-5.51,4.57-8.39,6.62,0,0-1.08,2.74-2.68,7-37.46-7.44-90.13-23.76-131.06-47.12,1.39-5.13,2.82-10.44,4.15-15.36C358.09,442.86,416.5,459.68,452.48,466Z" transform="translate(-11.74 -148.85)"/></g></g><path id="Path_2361" data-name="Path 2361" class="cls-4" d="M200.77,450.65c6.4-7.69,5.58-20.62,14.33-14.87s4,22.71,4,22.71" transform="translate(-11.74 -148.85)"/><g id="Group_1474" data-name="Group 1474"><path id="Path_2362" data-name="Path 2362" class="cls-8" d="M280.13,498.32l-20.48-84a5.38,5.38,0,0,0-4.84-3.68L207,408.48c-2.2-.09-7.1,3.77-6.63,5.71l24,81.66a5.4,5.4,0,0,0,4.84,3.69L275,504.88C277.23,505,280.6,500.26,280.13,498.32Z" transform="translate(-11.74 -148.85)"/><g id="Group_1473" data-name="Group 1473"><path id="Path_2363" data-name="Path 2363" class="cls-9" d="M273.57,505.07,225.73,503a5.38,5.38,0,0,1-4.84-3.68l-20.48-84c-.47-1.93.93-3.42,3.13-3.32L251.38,414a5.38,5.38,0,0,1,4.84,3.68l20.48,84C277.18,503.68,275.78,505.17,273.57,505.07Z" transform="translate(-11.74 -148.85)"/><path id="Path_2364" data-name="Path 2364" class="cls-2" d="M215.1,435.78h0a5.6,5.6,0,0,1-5-3.84l-2.38-9.74c-.49-2,1-3.58,3.27-3.48h0a5.61,5.61,0,0,1,5.06,3.84l2.37,9.74C218.87,434.33,217.4,435.88,215.1,435.78Z" transform="translate(-11.74 -148.85)"/></g></g><path id="Path_2365" data-name="Path 2365" class="cls-4" d="M202,449.34c12.59,1.69,29.83-1.72,34,.27s6.72,27.91-1.39,30.78-20.37,4.21-26.49-1.4S195.62,453.87,202,449.34Z" transform="translate(-11.74 -148.85)"/><path id="Path_2366" data-name="Path 2366" class="cls-4" d="M408,444.57l-34.1,35.62-76.4-17.81s-28.77-27.7-32.42-23.81,5,21.68,5,21.68-36.53-4.11-38.81-2.74,9.36,29.23,22.37,32.42,42,3,42,3l78.66,25.8a25.55,25.55,0,0,0,25.17-5.41l44.57-40.71S444.55,446,408,444.57Z" transform="translate(-11.74 -148.85)"/><line id="Line_19" data-name="Line 19" class="cls-22" x1="396.28" y1="295.73" x2="427.33" y2="251.59"/><line id="Line_20" data-name="Line 20" class="cls-22" x1="308.07" y1="247.8" x2="315.92" y2="221.91"/></g><g id="Group_1476" data-name="Group 1476"><path id="Path_2367" data-name="Path 2367" class="cls-2" d="M371.06,263.18c-18.75-13.24-14.86-25.57-7.52-25.41a38.26,38.26,0,0,1,12.32,2.13s-9-10.51-2.4-16,61.81,10.5,69.87,19.64,1.07,26,1.07,26,16.59,7.85,2.28,22.95-24.05,26.37-32.57,23.63" transform="translate(-11.74 -148.85)"/><path id="Path_2368" data-name="Path 2368" class="cls-4" d="M421.41,337.27c-1.52,6.09-9.73,9.74-21.22,12s-17.73-5.48-18-8.69a81.18,81.18,0,0,1,.43-9.48c.35-4.56.78-10,.94-15.16l35.09-16.36,2.8-1.31C419,308.8,421.41,337.27,421.41,337.27Z" transform="translate(-11.74 -148.85)"/><path id="Path_2369" data-name="Path 2369" class="cls-11" d="M419,299.67c-2.22,20.06-16.26,37.49-36.4,31.46.35-4.56.78-10,.94-15.16l35.09-16.36Z" transform="translate(-11.74 -148.85)"/><path id="Path_2370" data-name="Path 2370" class="cls-4" d="M369.79,251.25c17,23.47,49.17,21.27,49.17,21.27s-3.91,19.21-1.73,21.69,3.88-15.65,14.66-11.45.1,23.54-11,18c0,0-14.11,27.15-38.78,20.46S363,287.63,369.79,251.25Z" transform="translate(-11.74 -148.85)"/><path id="Path_2371" data-name="Path 2371" class="cls-12" d="M426.28,297c-4.94-1.21-.72-10.16,4.11-7.49" transform="translate(-11.74 -148.85)"/><path id="Path_2372" data-name="Path 2372" class="cls-12" d="M388,282.71c-.29.33-4.48,5.68-7.54,9.59a3.78,3.78,0,0,0,.65,5.28,3.85,3.85,0,0,0,1.05.58l6.37,2.28" transform="translate(-11.74 -148.85)"/><path id="Path_2373" data-name="Path 2373" class="cls-2" d="M406,292.52a2.41,2.41,0,1,1-2.41-2.4,2.41,2.41,0,0,1,2.41,2.4Z" transform="translate(-11.74 -148.85)"/><path id="Path_2374" data-name="Path 2374" class="cls-2" d="M376.32,283.62a2.41,2.41,0,1,1-2.4-2.4,2.4,2.4,0,0,1,2.4,2.4Z" transform="translate(-11.74 -148.85)"/><path id="Path_2375" data-name="Path 2375" class="cls-13" d="M401.19,282.71s6.68-2.13,9.65,3.65" transform="translate(-11.74 -148.85)"/><path id="Path_2376" data-name="Path 2376" class="cls-13" d="M371.5,275.05s6.67-2.12,9.64,3.66" transform="translate(-11.74 -148.85)"/><path id="Path_2377" data-name="Path 2377" class="cls-12" d="M387.61,307.76a9.34,9.34,0,0,0,9.44-.58" transform="translate(-11.74 -148.85)"/></g></g><g id="Group_1484" data-name="Group 1484"><g id="Group_1479" data-name="Group 1479"><path id="Path_2378" data-name="Path 2378" class="cls-23" d="M53.6,553.73l171.85,33c3.72.72,6.16-1.48,5.45-4.9L208.1,472.91c-.72-3.43-4.32-6.79-8-7.51L28.2,432.4c-3.73-.71-6.17,1.49-5.45,4.91l22.8,108.93C46.27,549.66,49.87,553,53.6,553.73Z" transform="translate(-11.74 -148.85)"/><path id="Path_2379" data-name="Path 2379" class="cls-24" d="M43,560.88l171.85,33c3.73.72,6.17-1.48,5.45-4.91l-22.8-108.92c-.72-3.42-4.32-6.78-8-7.5l-171.85-33c-3.72-.71-6.16,1.48-5.45,4.91l22.8,108.92C35.65,556.81,39.25,560.17,43,560.88Z" transform="translate(-11.74 -148.85)"/><g id="Group_1478" data-name="Group 1478"><line id="Line_21" data-name="Line 21" class="cls-16" x1="171.03" y1="346.71" x2="43.96" y2="318.71"/><line id="Line_22" data-name="Line 22" class="cls-16" x1="174.4" y1="365.39" x2="47.32" y2="337.38"/><line id="Line_23" data-name="Line 23" class="cls-16" x1="177.76" y1="384.06" x2="50.69" y2="356.06"/><line id="Line_24" data-name="Line 24" class="cls-16" x1="181.13" y1="402.74" x2="101.27" y2="385.15"/></g></g><g id="Group_1481" data-name="Group 1481"><path id="Path_2380" data-name="Path 2380" class="cls-23" d="M221.48,634.41l102.84,19.75c2.23.43,3.69-.89,3.26-2.94L313.94,586a6.42,6.42,0,0,0-4.82-4.48L206.28,561.81c-2.23-.44-3.69.88-3.26,2.93l13.64,65.18A6.43,6.43,0,0,0,221.48,634.41Z" transform="translate(-11.74 -148.85)"/><path id="Path_2381" data-name="Path 2381" class="cls-24" d="M213.21,642.33l102.85,19.75c2.23.43,3.68-.89,3.26-2.94L305.67,594a6.42,6.42,0,0,0-4.81-4.49L198,569.72c-2.23-.43-3.69.89-3.27,2.94l13.65,65.18A6.45,6.45,0,0,0,213.21,642.33Z" transform="translate(-11.74 -148.85)"/><g id="Group_1480" data-name="Group 1480"><line id="Line_25" data-name="Line 25" class="cls-25" x1="287.04" y1="450.75" x2="211" y2="433.99"/><line id="Line_26" data-name="Line 26" class="cls-25" x1="289.06" y1="461.93" x2="213.01" y2="445.17"/><line id="Line_27" data-name="Line 27" class="cls-25" x1="291.07" y1="473.1" x2="215.03" y2="456.35"/><line id="Line_28" data-name="Line 28" class="cls-25" x1="293.09" y1="484.28" x2="245.3" y2="473.75"/></g></g><g id="Group_1482" data-name="Group 1482"><path id="Path_2382" data-name="Path 2382" class="cls-7" d="M168.24,787.28,133.53,738l31-58.2,34.72,49.26Z" transform="translate(-11.74 -148.85)"/><path id="Path_2383" data-name="Path 2383" class="cls-26" d="M228.49,788.58l-60.25-1.3,31-58.19,60.25,1.29Z" transform="translate(-11.74 -148.85)"/><path id="Path_2384" data-name="Path 2384" class="cls-27" d="M164.51,679.83l59.93,1.87,35,48.68-60.25-1.29Z" transform="translate(-11.74 -148.85)"/></g><g id="Group_1483" data-name="Group 1483"><path id="Path_2385" data-name="Path 2385" class="cls-7" d="M63.8,404.46l-4.74-26.92,24-17.9,4.73,26.92Z" transform="translate(-11.74 -148.85)"/><path id="Path_2386" data-name="Path 2386" class="cls-26" d="M88.27,416.63,63.8,404.46l24-17.9,24.48,12.16Z" transform="translate(-11.74 -148.85)"/><path id="Path_2387" data-name="Path 2387" class="cls-27" d="M83,359.64,107.26,372l5,26.74L87.75,386.56Z" transform="translate(-11.74 -148.85)"/></g><path id="Path_2388" data-name="Path 2388" class="cls-24" d="M23,434.35l190-7.1L230.9,581.83" transform="translate(-11.74 -148.85)"/><path id="Path_2389" data-name="Path 2389" class="cls-24" d="M206.28,561.81,213,427.25,313.94,586" transform="translate(-11.74 -148.85)"/><path id="Path_2390" data-name="Path 2390" class="cls-24" d="M133.53,738,213,427.25l46.44,303.13" transform="translate(-11.74 -148.85)"/><path id="Path_2391" data-name="Path 2391" class="cls-24" d="M83,359.64l130,67.61L88.27,416.63" transform="translate(-11.74 -148.85)"/></g></g></svg>