<svg id="Layer_1" data-name="Layer 1" xmlns="http://www.w3.org/2000/svg" viewBox="0 0 1026.41 897.87"><defs><style>.cls-1{fill:#c6e2f4;}.cls-2{fill:#3285ff;}.cls-10,.cls-11,.cls-3,.cls-6,.cls-8{fill:none;stroke-miterlimit:10;}.cls-3{stroke:#3081f8;stroke-width:1.37px;}.cls-4{isolation:isolate;opacity:0.1;}.cls-5{fill:#2d76e3;}.cls-11,.cls-6{stroke:#296ed3;}.cls-6{stroke-width:1.71px;}.cls-7{fill:#3087ff;}.cls-8{stroke:#3087ff;stroke-width:1.28px;}.cls-9{fill:#78b0ff;}.cls-10{stroke:#78b0ff;stroke-width:0.89px;}.cls-11{stroke-width:0.82px;}.cls-12{fill:#ffb49b;}.cls-13{fill:#41378c;}.cls-14{fill:#fff;}.cls-15{fill:#9b14aa;}.cls-16{fill:#be1ec8;}.cls-17{fill:#ffa587;}.cls-18{fill:#f5876e;}</style></defs><g id="Group_1498" data-name="Group 1498"><circle id="Ellipse_45" data-name="Ellipse 45" class="cls-1" cx="613.8" cy="408.86" r="384.34"/><g id="Group_1490" data-name="Group 1490"><path id="Path_2395" data-name="Path 2395" class="cls-2" d="M437.13,906.31S435.06,730.46,553.82,625c53.87-47.84,178.39,13.84,58.9,95C563.33,753.56,488.08,783.44,437.13,906.31Z" transform="translate(-26.8 -91.21)"/><path id="Path_2396" data-name="Path 2396" class="cls-3" d="M596.34,658.33S425.15,771,434.56,971" transform="translate(-26.8 -91.21)"/></g><ellipse id="Ellipse_46" data-name="Ellipse 46" class="cls-4" cx="607.11" cy="876.18" rx="132.82" ry="18.51"/><g id="Group_1491" data-name="Group 1491"><path id="Path_2397" data-name="Path 2397" class="cls-5" d="M397.54,900.21S391.48,707.33,147.64,612c-84-32.85-206.53,87-32.42,136.22C187.18,768.59,288.43,774.33,397.54,900.21Z" transform="translate(-26.8 -91.21)"/><path id="Path_2398" data-name="Path 2398" class="cls-6" d="M110.3,668.47s248,66.14,315.88,307.59" transform="translate(-26.8 -91.21)"/></g><g id="Group_1492" data-name="Group 1492"><path id="Path_2399" data-name="Path 2399" class="cls-7" d="M222.18,498.59c15.81,10.56,20.67,31.05,20.67,31.05s-20.78,3.37-36.6-7.18-25.06-24.45-20.67-31S206.37,488,222.18,498.59Z" transform="translate(-26.8 -91.21)"/><path id="Path_2400" data-name="Path 2400" class="cls-7" d="M258.47,543.78c13.33,5.38,20.08,19.79,20.08,19.79s-14.86,5.7-28.19.32S228,549.65,230.28,544.1,245.14,538.4,258.47,543.78Z" transform="translate(-26.8 -91.21)"/><path id="Path_2401" data-name="Path 2401" class="cls-7" d="M272.41,526.83c5.52,13.27,0,28.19,0,28.19s-14.49-6.6-20-19.87-5.51-25.89,0-28.19S266.89,513.55,272.41,526.83Z" transform="translate(-26.8 -91.21)"/><path id="Path_2402" data-name="Path 2402" class="cls-7" d="M280.79,573.48c16.89,3.93,27.62,19.85,27.62,19.85s-16.65,9.56-33.54,5.63-29.24-12.81-27.62-19.85S263.91,569.56,280.79,573.48Z" transform="translate(-26.8 -91.21)"/><path id="Path_2403" data-name="Path 2403" class="cls-7" d="M310.44,555.89c4.85,16.65-3.78,33.8-3.78,33.8s-16.49-9.84-21.34-26.48-3.15-31.78,3.78-33.8S305.59,539.24,310.44,555.89Z" transform="translate(-26.8 -91.21)"/><path id="Path_2404" data-name="Path 2404" class="cls-7" d="M296.89,608.39c17.34-.06,31.44,13,31.44,13s-14,13.13-31.35,13.19-31.41-5.75-31.44-13S279.55,608.45,296.89,608.39Z" transform="translate(-26.8 -91.21)"/><path id="Path_2405" data-name="Path 2405" class="cls-7" d="M318.17,646.93c18.48-.86,34.11,12.39,34.11,12.39S338,674,319.46,674.82s-33.76-4.69-34.11-12.39S299.68,647.79,318.17,646.93Z" transform="translate(-26.8 -91.21)"/><path id="Path_2406" data-name="Path 2406" class="cls-7" d="M337.51,685.48c18.3-2.73,35.2,8.86,35.2,8.86s-12.77,16-31.07,18.75-34.06-1.23-35.2-8.85S319.21,688.21,337.51,685.48Z" transform="translate(-26.8 -91.21)"/><path id="Path_2407" data-name="Path 2407" class="cls-7" d="M359.4,729.36c18.5.31,33.27,14.52,33.27,14.52s-15.23,13.71-33.73,13.4-33.4-6.81-33.27-14.52S340.9,729.05,359.4,729.36Z" transform="translate(-26.8 -91.21)"/><path id="Path_2408" data-name="Path 2408" class="cls-7" d="M327.1,585.94c-6.84,15.94-.36,34-.36,34s17.56-7.76,24.4-23.7,7-31.15.36-34S333.93,570,327.1,585.94Z" transform="translate(-26.8 -91.21)"/><path id="Path_2409" data-name="Path 2409" class="cls-7" d="M359.11,624.15c-10.47,15.25-7.46,35.52-7.46,35.52s20-4.47,30.48-19.72,13.81-31.16,7.45-35.52S369.59,608.89,359.11,624.15Z" transform="translate(-26.8 -91.21)"/><path id="Path_2410" data-name="Path 2410" class="cls-7" d="M381.67,660.91c-12,14.11-11,34.58-11,34.58S391,693.08,403,679s16.91-29.59,11-34.58S393.64,646.8,381.67,660.91Z" transform="translate(-26.8 -91.21)"/><path id="Path_2411" data-name="Path 2411" class="cls-7" d="M396.73,708.59c-9.49,15.89-5.2,35.92-5.2,35.92s19.68-5.71,29.17-21.6,11.82-32,5.2-35.92S406.22,692.71,396.73,708.59Z" transform="translate(-26.8 -91.21)"/><path id="Path_2412" data-name="Path 2412" class="cls-7" d="M378.14,775.44c18,4.12,29.55,21.07,29.55,21.07s-17.72,10.27-35.76,6.16-31.28-13.55-29.56-21.07S360.1,771.32,378.14,775.44Z" transform="translate(-26.8 -91.21)"/><path id="Path_2413" data-name="Path 2413" class="cls-7" d="M419,762.82c-12.57,13.58-12.5,34.07-12.5,34.07s20.43-1.54,33-15.12,18.15-28.84,12.49-34.07S431.51,749.23,419,762.82Z" transform="translate(-26.8 -91.21)"/><path id="Path_2414" data-name="Path 2414" class="cls-7" d="M389.92,825.5c17.62,5.64,27.65,23.51,27.65,23.51S399,857.74,381.4,852.1s-30-16.16-27.65-23.51S372.3,819.87,389.92,825.5Z" transform="translate(-26.8 -91.21)"/><path id="Path_2415" data-name="Path 2415" class="cls-7" d="M431.65,816.4C418,828.86,416.3,849.28,416.3,849.28s20.49.21,34.16-12.25,20.55-27.19,15.35-32.89S445.32,803.93,431.65,816.4Z" transform="translate(-26.8 -91.21)"/><path id="Path_2416" data-name="Path 2416" class="cls-8" d="M223.89,517.78S314.69,567,375.25,704.32s49,267.27,49,267.27" transform="translate(-26.8 -91.21)"/></g><g id="Group_1493" data-name="Group 1493"><path id="Path_2417" data-name="Path 2417" class="cls-9" d="M1026.92,673.54c-11.76,6-16.8,19.68-16.8,19.68s14.05,4,25.81-1.93,19.29-14.78,16.8-19.68S1038.69,667.57,1026.92,673.54Z" transform="translate(-26.8 -91.21)"/><path id="Path_2418" data-name="Path 2418" class="cls-9" d="M998.2,701.68c-9.63,2.61-15.46,12-15.46,12s9.77,5.15,19.4,2.54,16.55-8,15.46-12S1007.82,699.07,998.2,701.68Z" transform="translate(-26.8 -91.21)"/><path id="Path_2419" data-name="Path 2419" class="cls-9" d="M990,688.85c-4.89,8.69-2.3,19.43-2.3,19.43s10.52-3.36,15.41-12,5.93-17.38,2.31-19.42S994.89,680.16,990,688.85Z" transform="translate(-26.8 -91.21)"/><path id="Path_2420" data-name="Path 2420" class="cls-9" d="M980.37,720.3c-12,1.31-20.66,11.4-20.66,11.4s10.69,8,22.65,6.64,21.2-6.41,20.65-11.39S992.33,719,980.37,720.3Z" transform="translate(-26.8 -91.21)"/><path id="Path_2421" data-name="Path 2421" class="cls-9" d="M961.4,705.74c-4.71,11.07-.18,23.59-.18,23.59s12.17-5.41,16.88-16.48,4.79-21.63.18-23.6S966.11,694.67,961.4,705.74Z" transform="translate(-26.8 -91.21)"/><path id="Path_2422" data-name="Path 2422" class="cls-9" d="M966.41,743c-11.94-1.47-22.73,6.35-22.73,6.35s8.57,10.2,20.51,11.67,22.12-1.38,22.73-6.35S978.35,744.49,966.41,743Z" transform="translate(-26.8 -91.21)"/><path id="Path_2423" data-name="Path 2423" class="cls-9" d="M948.57,767.83c-12.66-2.12-24.52,5.72-24.52,5.72s8.67,11.27,21.33,13.38,23.65-.45,24.53-5.72S961.24,769.93,948.57,767.83Z" transform="translate(-26.8 -91.21)"/><path id="Path_2424" data-name="Path 2424" class="cls-9" d="M932.07,792.78c-12.38-3.39-25,3.2-25,3.2s7.48,12.09,19.87,15.48,23.56,2,25-3.2S944.45,796.18,932.07,792.78Z" transform="translate(-26.8 -91.21)"/><path id="Path_2425" data-name="Path 2425" class="cls-9" d="M913.37,821.21c-12.77-1.31-24.11,7.26-24.11,7.26s9.36,10.69,22.13,12,23.57-1.94,24.11-7.26S926.15,822.52,913.37,821.21Z" transform="translate(-26.8 -91.21)"/><path id="Path_2426" data-name="Path 2426" class="cls-9" d="M947.45,725.07c3.39,11.54-2.56,23.46-2.56,23.46S933.43,741.74,930,730.2s-2.24-22.05,2.56-23.46S944.05,713.53,947.45,725.07Z" transform="translate(-26.8 -91.21)"/><path id="Path_2427" data-name="Path 2427" class="cls-9" d="M922.24,748.75c6,11.37,2.22,25.08,2.22,25.08s-13.42-4.72-19.37-16.09-7-22.6-2.21-25.08S916.29,737.38,922.24,748.75Z" transform="translate(-26.8 -91.21)"/><path id="Path_2428" data-name="Path 2428" class="cls-9" d="M903.67,772.22c7.09,10.7,4.76,24.73,4.76,24.73s-13.82-3.34-20.9-14-9.22-21.78-4.76-24.73S896.59,761.51,903.67,772.22Z" transform="translate(-26.8 -91.21)"/><path id="Path_2429" data-name="Path 2429" class="cls-9" d="M889.37,803.83C894.6,815.55,890,829,890,829s-13.08-5.56-18.31-17.28-5.51-23-.63-25.17S884.14,792.1,889.37,803.83Z" transform="translate(-26.8 -91.21)"/><path id="Path_2430" data-name="Path 2430" class="cls-9" d="M896.67,851.41c-12.77,1.35-22.1,12.08-22.1,12.08s11.37,8.54,24.13,7.19,22.67-6.76,22.1-12.08S909.44,850.06,896.67,851.41Z" transform="translate(-26.8 -91.21)"/><path id="Path_2431" data-name="Path 2431" class="cls-9" d="M869.6,839.35c7.53,10.39,5.79,24.5,5.79,24.5s-13.95-2.73-21.48-13.13-10.13-21.37-5.8-24.51S862.06,829,869.6,839.35Z" transform="translate(-26.8 -91.21)"/><path id="Path_2432" data-name="Path 2432" class="cls-9" d="M884.44,884.93c-12.61,2.43-21,13.91-21,13.91s12,7.54,24.65,5.11,22-8.66,21-13.92S897,882.5,884.44,884.93Z" transform="translate(-26.8 -91.21)"/><path id="Path_2433" data-name="Path 2433" class="cls-9" d="M856.43,875.21c8.39,9.71,7.87,23.93,7.87,23.93s-14.14-1.55-22.53-11.26S829.85,867.45,833.9,864,848,865.5,856.43,875.21Z" transform="translate(-26.8 -91.21)"/><path id="Path_2434" data-name="Path 2434" class="cls-10" d="M1024.17,686.62s-66.61,26.39-119.65,116-55.79,180.08-55.79,180.08" transform="translate(-26.8 -91.21)"/></g><g id="Group_1494" data-name="Group 1494"><path id="Path_2435" data-name="Path 2435" class="cls-5" d="M826.86,910.52s-68.25-209.42,34.25-379.9c46.5-77.33,218.4-50.18,105.95,91.56C920.58,680.76,841.79,744.61,826.86,910.52Z" transform="translate(-26.8 -91.21)"/><path id="Path_2436" data-name="Path 2436" class="cls-6" d="M924.41,554.58S761.91,753.2,848,988.79" transform="translate(-26.8 -91.21)"/></g><g id="Group_1495" data-name="Group 1495"><path id="Path_2437" data-name="Path 2437" class="cls-5" d="M861.27,947.24s31.56-101.17,119.27-139.5c39.79-17.39,99.67,41.16,16.06,65.43C962,883.2,913.35,886.31,861.27,947.24Z" transform="translate(-26.8 -91.21)"/><path id="Path_2438" data-name="Path 2438" class="cls-11" d="M998.7,834.77s-119.09,32.66-151,149.06" transform="translate(-26.8 -91.21)"/></g><g id="Group_1497" data-name="Group 1497"><path id="Path_2439" data-name="Path 2439" class="cls-12" d="M771.35,177.43l-.47-24.11a14,14,0,0,0-4.67-10.13c-4.69-4.21-10.46-11.7-9.11-13.46,2.49-3.25,10.67,8.63,14,6.2,1-.73-4.63-33.2-1.3-33,2.6.17,3.61,18.45,4.77,18.31s.86-30.26,3.24-30,3.13,27.65,4.72,26.65c2.32-1.46-.07-24.1,3.77-25.18,2.59-.74,2.19,28.81,3.64,29.32,1.8.64,2.58-19.1,4.81-18.32,3.08,1.08-1.56,34.68-1.56,34.68L787.29,181Z" transform="translate(-26.8 -91.21)"/><path id="Path_2440" data-name="Path 2440" class="cls-12" d="M421.9,284.88l-16.24-17.83a14,14,0,0,1-3.57-10.57c.51-6.28-.45-15.68-2.64-16-4-.64-1.81,13.61-5.87,14.1-1.22.16-19.46-27.28-21.74-24.84-1.78,1.9,10.05,15.87,9.12,16.57s-21.43-21.39-23-19.58,16.75,22.23,14.9,22.6c-2.69.53-16.51-17.54-20.06-15.69-2.38,1.24,18.22,22.42,17.53,23.79-.87,1.7-15-12.1-16.1-10-1.49,2.9,25,24.1,25,24.1l33.59,27Z" transform="translate(-26.8 -91.21)"/><g id="Group_1496" data-name="Group 1496"><path id="Path_2441" data-name="Path 2441" class="cls-13" d="M645.47,222.89a72.37,72.37,0,0,0-70.33-55.41,69.5,69.5,0,0,0-8.65.53,157.65,157.65,0,0,1-40.31.37c-5.92-.8-12.53-1.68-19.34-2.56-32.45-4.24-58.49,26.84-48.25,57.92.12.39.25.77.38,1.16a169,169,0,0,1,8.75,52.57c0,1.49.09,3,.2,4.51a72.42,72.42,0,0,0,75.4,66.9c19.38-.86,38.74,1.8,56.64,9.26,7.71,3.22,15.63,5.62,22,5.62A72.39,72.39,0,0,0,645.47,222.9Z" transform="translate(-26.8 -91.21)"/><path id="Path_2442" data-name="Path 2442" class="cls-14" d="M814.08,214.3S802.84,326.38,785.71,359c-13.54,25.79-81.38,83.39-81.38,83.39a23.06,23.06,0,0,1-32.61.41q-.79-.78-1.5-1.62h0A23.06,23.06,0,0,1,668,414.62s61.86-66.71,71-94.89c8.71-26.71-1.4-112.38-1.4-112.38a38.6,38.6,0,0,1,47-38.15h0A38.6,38.6,0,0,1,814.08,214.3Z" transform="translate(-26.8 -91.21)"/><path id="Path_2443" data-name="Path 2443" class="cls-13" d="M731.39,843.1c-12.61-4.19-15,4.64-19.21,20.34s-5,27.58-1,28.67c3.78,1,9.16-4.53,18.21-18C740.29,857.85,739.6,845.83,731.39,843.1Z" transform="translate(-26.8 -91.21)"/><path id="Path_2444" data-name="Path 2444" class="cls-12" d="M741,827.32l-12.24,17c-3.92,5.32-3.77,9.17-1.35,11.55h0a6.43,6.43,0,0,0,8.86.18l20.33-17Z" transform="translate(-26.8 -91.21)"/><path id="Path_2445" data-name="Path 2445" class="cls-15" d="M696.11,536.93c-61.63,24.27-44.59,107.76-15.56,125,43.18,25.61,129.3,14.86,129.37,21.53.3,28.13-74.81,146.21-74.81,146.21a3.12,3.12,0,0,0,.34,3.52,60.65,60.65,0,0,0,15.18,13.29,2.6,2.6,0,0,0,3-.66c42.08-39.2,127.51-136,137.56-177.72C908,598.47,707.63,532.39,696.11,536.93Z" transform="translate(-26.8 -91.21)"/><path id="Path_2446" data-name="Path 2446" class="cls-13" d="M394.32,798.88c-5.42-12.14-13.53-7.93-28-.46s-23.73,14.91-21.81,18.63c1.8,3.48,9.53,3.71,25.61,1.27C389.44,815.4,397.85,806.78,394.32,798.88Z" transform="translate(-26.8 -91.21)"/><path id="Path_2447" data-name="Path 2447" class="cls-12" d="M412.47,795.35l-20.79,2.4c-6.57.7-9.31,3.41-9.44,6.8h0a6.44,6.44,0,0,0,5.85,6.66l26.28,3.53Z" transform="translate(-26.8 -91.21)"/><path id="Path_2448" data-name="Path 2448" class="cls-16" d="M700.1,546.74c-12.63-13-72.54-2.69-72.54-2.69-62,23.27-58.89,77.31-52,110.37,10.22,49.15-5.51,90.18-10.39,94.73-20.57,19.19-158.4,43.4-158.4,43.4a3.1,3.1,0,0,0-2.36,2.63,60.7,60.7,0,0,0,.42,20.17,2.59,2.59,0,0,0,2.51,1.76c57.32,4.63,172.74,14.71,209.53-7.37C701.13,759.13,748.07,596.28,700.1,546.74Z" transform="translate(-26.8 -91.21)"/><path id="Path_2449" data-name="Path 2449" class="cls-14" d="M699.76,570.35a49.34,49.34,0,0,0,41.11-34.65c8.43-28,20-73.67,14.71-99.84-4.9-24.41-23.78-69.7-71.15-69.7-31.6,0-95.36,9.38-91.19,57.87,2.6,30.22,7.78,87.08,31.53,125.14A35.76,35.76,0,0,0,644,564.3C656.35,568.32,677.18,573.2,699.76,570.35Z" transform="translate(-26.8 -91.21)"/><path id="Rectangle_23" data-name="Rectangle 23" class="cls-17" d="M662.27,321.18h33.15v65.58a5.69,5.69,0,0,1-5.69,5.69H668a5.7,5.7,0,0,1-5.7-5.69V321.18Z" transform="translate(-26.8 -91.21)"/><path id="Path_2450" data-name="Path 2450" class="cls-18" d="M692.11,363.75h0a20.35,20.35,0,0,0,3.31-.28V321.18H662.27v6.18C662.27,343.83,675.63,363.75,692.11,363.75Z" transform="translate(-26.8 -91.21)"/><path id="Path_2451" data-name="Path 2451" class="cls-12" d="M699.6,352.31h0c-13.55,5.18-38-4.25-43.18-17.8,0,0-11.31-20.51-10.7-28,2.8-34.46,35.68-27.8,47.67-22.44,6.84,3.05,10.18,24.41,12.1,31.65C709.22,329.76,705.53,350,699.6,352.31Z" transform="translate(-26.8 -91.21)"/><path id="Path_2452" data-name="Path 2452" class="cls-17" d="M641.39,325.79a11.69,11.69,0,0,0,15,6.82L648,310.68A11.68,11.68,0,0,0,641.39,325.79Z" transform="translate(-26.8 -91.21)"/><path id="Path_2453" data-name="Path 2453" class="cls-17" d="M693.39,284.09,652,299.9l3.48,9.09a8.66,8.66,0,0,0-4.28,11.48,8.56,8.56,0,0,0,1.63,2.4,13.08,13.08,0,0,0,2.28-2.59,11.48,11.48,0,0,1,5.59-4.34,22.67,22.67,0,0,0,11.4-9.77,25,25,0,0,1,16.21-12.09,28.49,28.49,0,0,0,4.32-1.27,31.84,31.84,0,0,0,3.45-1.62Z" transform="translate(-26.8 -91.21)"/><path id="Path_2454" data-name="Path 2454" class="cls-13" d="M665.67,228.88a32.39,32.39,0,0,0-18.21,19.36c-3.07,8.88-9.75,15.86-17.71,20.83l-.28.18a26.23,26.23,0,0,0-11.57,26.61,28.08,28.08,0,0,0,1,3.93,28.61,28.61,0,0,1,1.68,12.93,12.62,12.62,0,0,0,.73,6.14c2.69,7,10.95,10.4,18.45,7.53a15,15,0,0,0,7.23-5.8,13.11,13.11,0,0,1,6.37-4.95,25.81,25.81,0,0,0,13-11.12,28.49,28.49,0,0,1,18.48-13.78A32.54,32.54,0,0,0,710,252.19a33.44,33.44,0,0,0-1.79-5.79C701.59,230.52,681.56,222.28,665.67,228.88Z" transform="translate(-26.8 -91.21)"/><path id="Path_2455" data-name="Path 2455" class="cls-14" d="M402.22,326S476,394.57,509.49,408.87c24.21,10.35,118.2,20.26,118.2,20.26a21.65,21.65,0,0,0,26.17-15.89c.09-.38.17-.76.25-1.14h0a20.22,20.22,0,0,0-10.24-21.59S560.41,377,537.27,363.75c-23.42-13.43-77.75-79.16-77.75-79.16-21.07-20.26-37.63-22.92-54.39-7.27h0C391,290.46,385.34,315.54,402.22,326Z" transform="translate(-26.8 -91.21)"/></g></g></g></svg>