<svg id="Layer_1" data-name="Layer 1" xmlns="http://www.w3.org/2000/svg" viewBox="0 0 1033.75 894.56"><defs><style>.cls-1{fill:#c6e2f4;}.cls-2{fill:#2d76e3;}.cls-3{fill:#cacaca;}.cls-4{fill:#2f2e41;}.cls-5{fill:#3f3d56;}.cls-6{fill:#fff;}.cls-7{fill:#6c63ff;}.cls-8{fill:#e6e6e6;}.cls-9{fill:#9b14aa;}.cls-10{fill:#ffb6b6;}.cls-11{fill:#f7f7f7;}.cls-12{fill:#a0616a;}</style></defs><g id="Group_1502" data-name="Group 1502"><path id="Path_2457" data-name="Path 2457" class="cls-1" d="M839.49,166.59c-1.16-.77-2.34-1.5-3.5-2.25a507.77,507.77,0,0,0-107.24-52L720,232.83H664.65V94.77c-3.48-.73-7-1.41-10.51-2V232.83H588.35A136.56,136.56,0,0,1,451.78,96.26h0c-3.53.76-7,1.58-10.52,2.44V232.83H387.67L379.35,118a508.46,508.46,0,0,0-109.42,58.12c-.59.4-1.18.82-1.75,1.22-2.95,2.07-5.86,4.18-8.76,6.32V643.22H417.35l-2.79-38.66L399.21,392.31H708.46L693.11,604.56l-2.8,38.66H846.5v-472Q843,168.89,839.49,166.59ZM441.26,357.26H396.67l-8.24-113.91h52.83Zm212.88,0H579.25V355a8.25,8.25,0,0,0-8.25-8.25H538.43a8.25,8.25,0,0,0-8.25,8.24h0v2.26h-78.4V243.35H654.14Zm10.51,0V243.35h54.6L711,357.26Z" transform="translate(-23.13 -92.72)"/><path id="Path_2458" data-name="Path 2458" class="cls-2" d="M1011,928.06l1-23.47a75.75,75.75,0,0,1,35.36-9c-17,13.89-14.86,40.64-26.37,59.31A45.59,45.59,0,0,1,987.6,976l-14.21,8.71a76.42,76.42,0,0,1,16.1-61.92,74.39,74.39,0,0,1,13.57-12.6C1006.46,919.18,1011,928.06,1011,928.06Z" transform="translate(-23.13 -92.72)"/><path id="Path_2459" data-name="Path 2459" class="cls-2" d="M248.58,902.34,214.29,892a115.52,115.52,0,0,1,.09-55.62c14.12,30.33,54.47,37.27,77.73,61.32A69.51,69.51,0,0,1,310.65,955l7.51,24.28a116.48,116.48,0,0,1-85.43-47.12,112.5,112.5,0,0,1-13.52-24.79C233.75,905.71,248.58,902.34,248.58,902.34Z" transform="translate(-23.13 -92.72)"/><path id="Path_2460" data-name="Path 2460" class="cls-1" d="M984.32,980.88a2.72,2.72,0,0,1-.79,1.9,2.6,2.6,0,0,1-1.88.77H970.91a2.66,2.66,0,0,1-2.67-2.65V656.2c0-7.15-2.4-13-5.35-13H158.35c-3,0-5.36,5.83-5.37,13V978.89a2.67,2.67,0,0,1-2.42,2.66q-3.24.32-6.47.58h-.16c-1.18.11-2.35.19-3.53.28h0c-.62-1.11-1.2-2.24-1.8-3.38a2.67,2.67,0,0,1-.3-1.24V639.37c0-2,.08-4,.21-5.93a77.45,77.45,0,0,1,1-8c2.25-12.41,7.35-20.81,13.15-20.83H968.57a6.09,6.09,0,0,1,2.45.52,9.43,9.43,0,0,1,3,2.12,18.84,18.84,0,0,1,3,4.07c2.86,5,4.9,12.54,5.62,21.27,0,.08,0,.16,0,.25.18,2.16.28,4.36.26,6.57l.19,28.61.12,17.07.36,53.55.13,19Z" transform="translate(-23.13 -92.72)"/><path id="Path_2461" data-name="Path 2461" class="cls-3" d="M1055.33,986.87l-368.23.41a1.59,1.59,0,0,1-.09-3.18h.09l368.23-.41a1.59,1.59,0,0,1,0,3.18Z" transform="translate(-23.13 -92.72)"/><path id="Path_2462" data-name="Path 2462" class="cls-4" d="M598.27,509.7H533.05a3.49,3.49,0,0,0-3.47,3.49v103h72.18v-103a3.48,3.48,0,0,0-3.48-3.49Zm-32.39,58.54a7.74,7.74,0,0,1-7.7-7.7V548.65a7.7,7.7,0,0,1,15.4,0v11.89a7.74,7.74,0,0,1-7.7,7.7Z" transform="translate(-23.13 -92.72)"/><path id="Path_2463" data-name="Path 2463" class="cls-5" d="M706.26,348.92H427.49a9.06,9.06,0,0,0-9,9V546.08a9,9,0,0,0,9,9H706.26a9,9,0,0,0,9-9V358A9.06,9.06,0,0,0,706.26,348.92Z" transform="translate(-23.13 -92.72)"/><path id="Path_2464" data-name="Path 2464" class="cls-6" d="M703.93,355.45H429.81a4.84,4.84,0,0,0-4.83,4.84V543.75a4.85,4.85,0,0,0,4.83,4.83H703.93a4.85,4.85,0,0,0,4.84-4.83V360.29a4.84,4.84,0,0,0-4.84-4.84Z" transform="translate(-23.13 -92.72)"/><path id="Path_2465" data-name="Path 2465" class="cls-5" d="M529.36,612.91v9.94a1.94,1.94,0,0,0,1.94,1.94H600a2,2,0,0,0,1.94-1.94v-9.94Z" transform="translate(-23.13 -92.72)"/><path id="Path_2466" data-name="Path 2466" class="cls-4" d="M650.54,628.25H487.46a3,3,0,0,1-3-3,3.18,3.18,0,0,1,.06-.62l2.54-12a3,3,0,0,1,2.93-2.38H648a3,3,0,0,1,2.94,2.38l2.54,12a3,3,0,0,1-2.32,3.55,2.56,2.56,0,0,1-.62.06Z" transform="translate(-23.13 -92.72)"/><rect id="Rectangle_25" data-name="Rectangle 25" class="cls-5" x="468.02" y="519.68" width="5.02" height="3.01" rx="0.65"/><rect id="Rectangle_26" data-name="Rectangle 26" class="cls-5" x="478.06" y="519.68" width="5.02" height="3.01" rx="0.65"/><rect id="Rectangle_27" data-name="Rectangle 27" class="cls-5" x="488.11" y="519.68" width="5.02" height="3.01" rx="0.65"/><rect id="Rectangle_28" data-name="Rectangle 28" class="cls-5" x="498.15" y="519.68" width="5.02" height="3.01" rx="0.65"/><rect id="Rectangle_29" data-name="Rectangle 29" class="cls-5" x="508.2" y="519.68" width="5.02" height="3.01" rx="0.65"/><rect id="Rectangle_30" data-name="Rectangle 30" class="cls-5" x="518.25" y="519.68" width="5.02" height="3.01" rx="0.65"/><rect id="Rectangle_31" data-name="Rectangle 31" class="cls-5" x="528.29" y="519.68" width="5.02" height="3.01" rx="0.65"/><rect id="Rectangle_32" data-name="Rectangle 32" class="cls-5" x="538.34" y="519.68" width="5.02" height="3.01" rx="0.65"/><rect id="Rectangle_33" data-name="Rectangle 33" class="cls-5" x="548.38" y="519.68" width="5.02" height="3.01" rx="0.65"/><rect id="Rectangle_34" data-name="Rectangle 34" class="cls-5" x="558.43" y="519.68" width="5.02" height="3.01" rx="0.65"/><rect id="Rectangle_35" data-name="Rectangle 35" class="cls-5" x="568.48" y="519.68" width="5.02" height="3.01" rx="0.65"/><rect id="Rectangle_36" data-name="Rectangle 36" class="cls-5" x="578.52" y="519.68" width="5.02" height="3.01" rx="0.65"/><rect id="Rectangle_37" data-name="Rectangle 37" class="cls-5" x="588.57" y="519.68" width="5.02" height="3.01" rx="0.65"/><rect id="Rectangle_38" data-name="Rectangle 38" class="cls-5" x="598.61" y="519.68" width="5.02" height="3.01" rx="0.65"/><rect id="Rectangle_39" data-name="Rectangle 39" class="cls-5" x="608.66" y="519.68" width="5.02" height="3.01" rx="0.65"/><rect id="Rectangle_40" data-name="Rectangle 40" class="cls-5" x="618.7" y="519.68" width="5.02" height="3.01" rx="0.65"/><rect id="Rectangle_41" data-name="Rectangle 41" class="cls-5" x="467.9" y="524.7" width="5.02" height="3.01" rx="0.65"/><rect id="Rectangle_42" data-name="Rectangle 42" class="cls-5" x="477.95" y="524.7" width="5.02" height="3.01" rx="0.65"/><rect id="Rectangle_43" data-name="Rectangle 43" class="cls-5" x="487.99" y="524.7" width="5.02" height="3.01" rx="0.65"/><rect id="Rectangle_44" data-name="Rectangle 44" class="cls-5" x="498.04" y="524.7" width="5.02" height="3.01" rx="0.65"/><rect id="Rectangle_45" data-name="Rectangle 45" class="cls-5" x="508.08" y="524.7" width="5.02" height="3.01" rx="0.65"/><rect id="Rectangle_46" data-name="Rectangle 46" class="cls-5" x="518.13" y="524.7" width="5.02" height="3.01" rx="0.65"/><rect id="Rectangle_47" data-name="Rectangle 47" class="cls-5" x="528.17" y="524.7" width="5.02" height="3.01" rx="0.65"/><rect id="Rectangle_48" data-name="Rectangle 48" class="cls-5" x="538.22" y="524.7" width="5.02" height="3.01" rx="0.65"/><rect id="Rectangle_49" data-name="Rectangle 49" class="cls-5" x="548.27" y="524.7" width="5.02" height="3.01" rx="0.65"/><rect id="Rectangle_50" data-name="Rectangle 50" class="cls-5" x="558.31" y="524.7" width="5.02" height="3.01" rx="0.65"/><rect id="Rectangle_51" data-name="Rectangle 51" class="cls-5" x="568.36" y="524.7" width="5.02" height="3.01" rx="0.65"/><rect id="Rectangle_52" data-name="Rectangle 52" class="cls-5" x="578.4" y="524.7" width="5.02" height="3.01" rx="0.65"/><rect id="Rectangle_53" data-name="Rectangle 53" class="cls-5" x="588.45" y="524.7" width="5.02" height="3.01" rx="0.65"/><rect id="Rectangle_54" data-name="Rectangle 54" class="cls-5" x="598.49" y="524.7" width="5.02" height="3.01" rx="0.65"/><rect id="Rectangle_55" data-name="Rectangle 55" class="cls-5" x="608.54" y="524.7" width="5.02" height="3.01" rx="0.65"/><rect id="Rectangle_56" data-name="Rectangle 56" class="cls-5" x="618.59" y="524.7" width="5.02" height="3.01" rx="0.65"/><rect id="Rectangle_57" data-name="Rectangle 57" class="cls-5" x="516.12" y="530.73" width="40.18" height="3.01" rx="0.65"/><path id="Path_2467" data-name="Path 2467" class="cls-3" d="M690.16,380.73H433.67a1,1,0,1,1,0-2H690.16a1,1,0,1,1,0,2Z" transform="translate(-23.13 -92.72)"/><ellipse id="Ellipse_47" data-name="Ellipse 47" class="cls-5" cx="428" cy="274.65" rx="5.98" ry="6.11"/><ellipse id="Ellipse_48" data-name="Ellipse 48" class="cls-5" cx="448.65" cy="274.65" rx="5.98" ry="6.11"/><ellipse id="Ellipse_49" data-name="Ellipse 49" class="cls-5" cx="469.3" cy="274.65" rx="5.98" ry="6.11"/><path id="Path_2468" data-name="Path 2468" class="cls-5" d="M677.72,362.77H663.06a1.11,1.11,0,1,0,0,2.22h14.66a1.11,1.11,0,1,0,0-2.22Z" transform="translate(-23.13 -92.72)"/><path id="Path_2469" data-name="Path 2469" class="cls-5" d="M677.72,366.94H663.06a1.11,1.11,0,1,0,0,2.22h14.66a1.11,1.11,0,0,0,0-2.22Z" transform="translate(-23.13 -92.72)"/><path id="Path_2470" data-name="Path 2470" class="cls-5" d="M677.72,371.1H663.06a1.12,1.12,0,1,0,0,2.23h14.66a1.12,1.12,0,0,0,0-2.23Z" transform="translate(-23.13 -92.72)"/><path id="Rectangle_58" data-name="Rectangle 58" class="cls-7" d="M550.35,440.32h32a4.36,4.36,0,0,1,4.36,4.35h0A4.36,4.36,0,0,1,582.4,449h-32a4.36,4.36,0,0,1-4.36-4.36h0A4.36,4.36,0,0,1,550.35,440.32Z" transform="translate(-23.13 -92.72)"/><path id="Rectangle_59" data-name="Rectangle 59" class="cls-8" d="M529.65,457.75H603.1a4.36,4.36,0,0,1,4.36,4.36h0a4.36,4.36,0,0,1-4.36,4.36H529.65a4.36,4.36,0,0,1-4.36-4.36h0A4.36,4.36,0,0,1,529.65,457.75Z" transform="translate(-23.13 -92.72)"/><path id="Rectangle_60" data-name="Rectangle 60" class="cls-8" d="M529.65,475.19H603.1a4.36,4.36,0,0,1,4.36,4.36h0a4.36,4.36,0,0,1-4.36,4.35H529.65a4.36,4.36,0,0,1-4.36-4.35h0A4.36,4.36,0,0,1,529.65,475.19Z" transform="translate(-23.13 -92.72)"/><path id="Path_2471" data-name="Path 2471" class="cls-5" d="M436.17,641.37H356.05a10.68,10.68,0,1,0,0,21.36h29.38v82.8h21.36v-82.8h29.38a10.68,10.68,0,0,0,0-21.36Z" transform="translate(-23.13 -92.72)"/><path id="Path_2472" data-name="Path 2472" class="cls-9" d="M489.05,791.38H274.75a86.54,86.54,0,0,1-85.35-74.3l-7.59-27.9a626.39,626.39,0,0,0-71-164.12c-14.35-23.31-21.73-45.87-5-67.59l.43-.55c13.45-17.51,80.43-21.3,102.26-22,.87,0,1.73-.05,2.6-.05h133.3c.87,0,1.73,0,2.59.05a65.23,65.23,0,0,1,56.41,35.95,67.21,67.21,0,0,1-3.82,68.81c-46.82,70.33-61.16,114.44-46.48,143,14.2,27.62,57.71,41.75,137,44.44,21.3.73,31.07,17.31,31.14,32.41.07,14.71-9.33,31-30.12,31.84C490.42,791.36,489.74,791.38,489.05,791.38Z" transform="translate(-23.13 -92.72)"/><path id="Path_2473" data-name="Path 2473" class="cls-5" d="M311.16,981.67h80.12a10.69,10.69,0,0,0,0-21.37H361.9V780H340.53V960.3H311.16a10.69,10.69,0,1,0,0,21.37Z" transform="translate(-23.13 -92.72)"/><path id="Path_2474" data-name="Path 2474" class="cls-4" d="M304.76,441.53l1.68,10.2c.8,4.95,3.67,39.91,1.54,44.08-.19-7.78-14.69-20-24.09-17.23l-14.74,3.27-9.16,2-7.44,1.63-21.65,4.73c0-.25-.06-.52-.1-.77s-.1-.63-.17-.94a18.92,18.92,0,0,0-2.17-5.77,14.4,14.4,0,0,1-2.06,6.78.7.7,0,0,0-.09.17,18.68,18.68,0,0,1-1.27,1.79l-.06.05s-4.45-70.89-4-71.55c.34-.46.68-.92,1-1.36s.71-.89,1.08-1.33a.44.44,0,0,0,.12-.15,48.13,48.13,0,0,1,3.31-3.54l1-1a49.36,49.36,0,0,1,18.93-10.92c.8-.25,1.62-.47,2.46-.7s1.68-.41,2.53-.58l.29-.06,1.23-.23c.52-.09,1-.17,1.54-.23A49.71,49.71,0,0,1,274.23,401s0,0,0,0a50.76,50.76,0,0,1,15.05,6.71c8,5.28,11.1,13.88,13.31,23.54C303.39,434.6,304,438.05,304.76,441.53Z" transform="translate(-23.13 -92.72)"/><path id="Path_2475" data-name="Path 2475" class="cls-10" d="M383.67,909l13.8,7.5L434,866,413.63,854.9Z" transform="translate(-23.13 -92.72)"/><path id="Path_2476" data-name="Path 2476" class="cls-4" d="M390.32,891l25.05,7.84-4,10.5,17.19,24.94a7,7,0,0,1-8.27,10.54l-29.17-11.09-1.08-12.29-5.91,9.64-11-4.18Z" transform="translate(-23.13 -92.72)"/><path id="Path_2477" data-name="Path 2477" class="cls-10" d="M461.85,683a15.51,15.51,0,0,1-18.74-11.4,16.3,16.3,0,0,1-.41-2.7L325,626.58l21.6-18.81,111.74,44.49A15.59,15.59,0,0,1,461.85,683Z" transform="translate(-23.13 -92.72)"/><path id="Path_2478" data-name="Path 2478" class="cls-11" d="M292.09,521.65s-19.83.44-21.59,23.08,41.5,78.62,48.21,87.86,81.15,20.6,81.15,20.6l25.31-18.38C398.58,617.58,374.31,604.36,358,605Z" transform="translate(-23.13 -92.72)"/><path id="Path_2479" data-name="Path 2479" class="cls-10" d="M267.77,621.53l4.83,20.76s0,19.15,3.44,22.68,77.39-3.54,77.39-3.54-7.85-30.85-7.75-54.19Z" transform="translate(-23.13 -92.72)"/><path id="Path_2480" data-name="Path 2480" class="cls-4" d="M424.15,887.07l-26.71-14.68c-.5-34.76,20.4-81.79,45.19-131-55.45,9.54-107.76,12.6-153,1.06a29.25,29.25,0,0,1-20.92-35.33c.18-.73.38-1.46.61-2.17,5.42-16.53-6.72-26.88,4.44-45,29.38-10,57.28-12.87,82.8-4l16,35.35,79.25-10.26a29.23,29.23,0,0,1,32.48,25.55l0,.22c.1.86.17,1.72.2,2.59C468.48,784.41,450.51,852,424.15,887.07Z" transform="translate(-23.13 -92.72)"/><circle id="Ellipse_50" data-name="Ellipse 50" class="cls-10" cx="241.67" cy="352.9" r="33.12"/><path id="Path_2481" data-name="Path 2481" class="cls-6" d="M257,490.1l30.53-1.8a6.22,6.22,0,0,1,6.1,3.82L302.26,513l35.86,29.63s14.19,18.07,14.23,41.4,5,77.33,5,77.33-20.72-29.17-33.5-21.41c-2.18,1.32-2.94,4-5.22,5.38-1.14.68-3.77,0-4.91.7-17.63,10.46-36,20.68-37.72,18.89-3.37-3.52-7.46-21.5-7.46-21.5L240.63,540.8a38,38,0,0,1,5.4-32c2-2.75,4-4.79,5.9-5.13C256.2,502.76,253.93,493.19,257,490.1Z" transform="translate(-23.13 -92.72)"/><path id="Path_2482" data-name="Path 2482" class="cls-10" d="M516.7,952.48l12.89-9-29.2-55.07-19,13.22Z" transform="translate(-23.13 -92.72)"/><path id="Path_2483" data-name="Path 2483" class="cls-4" d="M518.65,915.53l-20.2,18.05c-32.11-35.79-56.39-86-77-143-53.9-15.78-94.55-41.24-130-71.47-12-10.19-21.06-23.28-10.79-35.69q.72-.87,1.5-1.68C294.28,669.32,325,671.7,343,660.28l40.22,43-2.53,11.52,75.56,25.59a29.18,29.18,0,0,1,17.88,37.19l-.08.23c-.28.81-.6,1.62-.95,2.41Z" transform="translate(-23.13 -92.72)"/><path id="Path_2484" data-name="Path 2484" class="cls-4" d="M509.19,948.85l20.63-16.25,6.41,9.22,30.28-.09a7,7,0,0,1,4,12.77l-25.63,17.81-10.75-6,4.61,10.32-9.66,6.71Z" transform="translate(-23.13 -92.72)"/><path id="Path_2485" data-name="Path 2485" class="cls-10" d="M302.09,748.85a15.51,15.51,0,0,1-8.21-20.34,15,15,0,0,1,1.28-2.41L226.05,621.81l28.56-2.17,63,102.43a15.59,15.59,0,0,1-15.55,26.78Z" transform="translate(-23.13 -92.72)"/><path id="Path_2486" data-name="Path 2486" class="cls-11" d="M262.36,518s-16.16-11.49-31.1,5.61-13.69,87.85-13.84,99.26c0,3.57,5.12,11.28,12.23,20.18,3.19,4,6.77,8.24,10.45,12.45,2.14,2.44.3,7.51,2.44,9.88s8.23,2,10.25,4.2c9.61,10.38,17.41,18.29,17.41,18.29l31.28.38c.35-23.25-15.57-44-36-64.06Z" transform="translate(-23.13 -92.72)"/><path id="Path_2487" data-name="Path 2487" class="cls-4" d="M306.2,429.54c-1.23.6-2.41,1.19-3.58,1.73a111.27,111.27,0,0,1-14.5,5.91,18,18,0,0,0-3.71-6.07,14.41,14.41,0,0,1-.61,7.25,41,41,0,0,1-22.75-.88c4.8,8.9,8.35,27.65,8.09,44.38-.11,8.84-1.31,17.11-3.92,23.06l-3.36-10.22A63,63,0,0,0,260,483.89c-2.25-9.93-4.35-3.29-7.45,1.64l-21.64,4.73c0-.25-.07-.52-.1-.77s-.11-.64-.17-.95a18.68,18.68,0,0,0-2.18-5.77,14.32,14.32,0,0,1-2,6.79.65.65,0,0,0-.09.16,17.51,17.51,0,0,1-1.27,1.79l-.06.05c-14,1.87-23.77-70.19-4-71.53.58,0,.69-.92,1-1.37s.71-.9,1.08-1.34a.44.44,0,0,0,.12-.15c1.06-1.22,2.15-2.4,3.31-3.54l1-1a50,50,0,0,1,18.94-10.9c.8-.25,1.61-.49,2.45-.71s1.68-.41,2.53-.59l.29-.06,1.23-.22c.52-.09,1-.17,1.54-.23a12.42,12.42,0,0,1,4.71,4.13l13.83-2.83c.37-.08.74-.14,1.11-.19h0C291.52,398.14,302.62,412,306.2,429.54Z" transform="translate(-23.13 -92.72)"/><path id="Path_2488" data-name="Path 2488" class="cls-4" d="M230.83,416.8c-3,2.13-6.07,4.34-9.69,4.87s-7.84-1.22-8.84-4.73c-1.22-4.3,2.66-8.21,6.14-11l11.06-8.85a26.73,26.73,0,0,1,6.77-4.38,9.05,9.05,0,0,1,7.82.27,8.41,8.41,0,0,1,3.69,7.31,15.68,15.68,0,0,1-2.74,8,28.19,28.19,0,0,1-18.28,12.43" transform="translate(-23.13 -92.72)"/><path id="Path_2489" data-name="Path 2489" class="cls-5" d="M314.65,646.71H234.53a10.69,10.69,0,0,0,0,21.37h29.38v82.79h21.36V668.08h29.38a10.69,10.69,0,1,0,0-21.37Z" transform="translate(-23.13 -92.72)"/><path id="Path_2490" data-name="Path 2490" class="cls-3" d="M610.65,985.53l-585.89.41a1.59,1.59,0,0,1-.09-3.18h.09l585.89-.41a1.59,1.59,0,0,1,0,3.18Z" transform="translate(-23.13 -92.72)"/><path id="Path_2491" data-name="Path 2491" class="cls-12" d="M781.15,808.18l13,14.21,61-43.54-19.24-21Z" transform="translate(-23.13 -92.72)"/><path id="Path_2492" data-name="Path 2492" class="cls-4" d="M808.15,828.29h0l-1.32-14.2-.6-.28-3.52-1.67-16.57-7.83-.35-.38-3.32-3.63-18.42,16.9,25,27.19L806.11,863l.57-.53a24.18,24.18,0,0,0,1.49-34.17l0,0Z" transform="translate(-23.13 -92.72)"/><path id="Path_2493" data-name="Path 2493" class="cls-12" d="M713.58,950,732,955.58l30.41-68.53-27.24-8.28Z" transform="translate(-23.13 -92.72)"/><path id="Path_2494" data-name="Path 2494" class="cls-4" d="M761.37,965.31a24,24,0,0,0-14.31-11.75L738.68,942l-.65,0-22.13,2-.49-.14-4.7-1.43-7.27,23.91L763,984.51l.23-.76a24.12,24.12,0,0,0-1.82-18.44Z" transform="translate(-23.13 -92.72)"/><path id="Path_17" data-name="Path 17" class="cls-4" d="M865.78,591.17s117.85,113.78,43.35,149h-23s-6.92-24.58-22.76-45.32c-2.17-2.84-10.32-2.27-12.59-5-13.82-16.94-28.8-31.49-39.15-30.91l2.48,78.61,4,28c2.11,14.49-57.26,141.07-57.26,141.07L723.51,892s38.87-104.25,39.33-119.28L731.68,607.42Z" transform="translate(-23.13 -92.72)"/><path id="Path_2495" data-name="Path 2495" class="cls-6" d="M875.61,596.78a6.85,6.85,0,0,1-2.3,2.08,16,16,0,0,1-4.82,1.79c-26.53,6-113.21,18.51-135.71,12.56-2.76-.73-4.57-1.74-5.15-3.08-1.89-4.22-1.65-22-.54-43.57.2-4,4.65-8.4,4.92-12.62.18-3.16-3.81-6.14-3.6-9.36,1.47-21.77,3.37-44,4.64-58,.8-9,1.35-14.65,1.35-14.65l-13.69-86.3.64-1.05.72-.37L766.2,362.4l2.41-6.15a9.51,9.51,0,0,1,8.8-6l29.07-.12a9.49,9.49,0,0,1,7.73,3.93L822.09,365l52.08,33.38-.2.62-24.44,74.36-.12,5.8h0l-.91,46.6L851,532l-2.85,10.36s1.31,12.12,8.32,21.12c6.36,8.17,14.45,16.69,18.11,23.6v0C876.64,591,877.32,594.27,875.61,596.78Z" transform="translate(-23.13 -92.72)"/><path id="Path_18" data-name="Path 18" class="cls-4" d="M914.79,733.41l-6.3,8s-57.93,40.53-59.92,44.32l-9.16,8.66-22.15-23.68,11.52-14.44a90.55,90.55,0,0,1,34.69-26.56h0L881.13,714Z" transform="translate(-23.13 -92.72)"/><path id="Path_2496" data-name="Path 2496" class="cls-12" d="M878,619.66,867.43,517.54l-2.79-42,29.53-5.34s-1.17,30.05,2.7,47c3.82,16.73.51,100.23.27,102.46a14.37,14.37,0,1,1-20.29,1.14,15.06,15.06,0,0,1,1.13-1.13Z" transform="translate(-23.13 -92.72)"/><path id="Path_2497" data-name="Path 2497" class="cls-11" d="M906.78,538.7l-37.95,7.86-3.32-13.24-3.88-4.1-7.73-40.49L842.81,465l2.89-81.12,28.17,14.94,0,0c4.31,4.67,7.28,11.37,12.21,18.08,15.56,21.17,17.29,72.59,16.82,100.76,0,.46.45.95,1,1.47a15.63,15.63,0,0,1,2.84,19.53Z" transform="translate(-23.13 -92.72)"/><path id="Path_2498" data-name="Path 2498" class="cls-12" d="M706.11,623.66l10.55-102.11,2.78-42-29.52-5.34s1.17,30-2.7,47c-3.82,16.73-.51,100.24-.27,102.47a14.37,14.37,0,1,0,20.28,1.13,13.15,13.15,0,0,0-1.12-1.12Z" transform="translate(-23.13 -92.72)"/><path id="Path_2499" data-name="Path 2499" class="cls-11" d="M741.27,469l-8.22,17.6-2.87,6.13-7.74,40.49-3.86,4.1-3.32,13.23-1.56-.32-28.18-5.83-8.21-1.7a15.62,15.62,0,0,1,2.83-19.54c.56-.5,1-1,1-1.46-.46-28.17,1.26-79.59,16.82-100.76,4.94-6.71,7.9-13.4,12.21-18.08,0,0,0,0,0,0l10.5-17.18.64-1.06.72-.36Z" transform="translate(-23.13 -92.72)"/><circle id="Ellipse_5" data-name="Ellipse 5" class="cls-12" cx="767.98" cy="210.44" r="38.68"/><path id="Path_2500" data-name="Path 2500" class="cls-4" d="M834.59,286.19c-.14-6.6-.88-15-5.5-21.77-3.9-5.66-11.77-10.15-19.1-7.9a7.94,7.94,0,0,0-4-7.32c-2.78-1.7-6.12-2-9.07-2.28-7.44-.7-15.14-1.42-22.67,0-8.46,1.6-15.37,6-19,11.95l-.08.19-.73,3.55a3.4,3.4,0,0,1-1.67,2.27,3.32,3.32,0,0,1-2.82.2,3.07,3.07,0,0,0-4.1,3.31l.2,1.42-2.12-.4a3,3,0,0,0-3.43,4.07l.59,1.62a3.28,3.28,0,0,0-2.34,1,3,3,0,0,0-.4,3.5,27.8,27.8,0,0,0,9.8,9.86,23.36,23.36,0,0,0,5.84,2.49c.42.12.86.23,1.32.32a137.33,137.33,0,0,0,49.87,1.5,28.25,28.25,0,0,0-1.1,10.1c.53,4.26,3,7.77,6.37,8.94a12.26,12.26,0,0,0,2.32.56,15.45,15.45,0,0,1,2.23.55,6.48,6.48,0,0,1,3.86,8.33,6.32,6.32,0,0,1-2,2.78s3.5,2.9,3.94,2.75a9,9,0,0,0,4.12-3.66C831.69,314.57,834.91,301.8,834.59,286.19Z" transform="translate(-23.13 -92.72)"/></g></svg>