<svg id="Layer_1" data-name="Layer 1" xmlns="http://www.w3.org/2000/svg" viewBox="0 0 1055.76 734.55"><defs><style>.cls-1{fill:#c6e2f4;}.cls-2{fill:#2f2e41;}.cls-3{fill:#3f3d56;}.cls-4{fill:#fff;}.cls-5{fill:#2d76e3;}.cls-6{fill:#e6e6e6;}.cls-7{fill:#ffb8b8;}.cls-8{fill:#9b14aa;}.cls-9{fill:#be1ec8;}</style></defs><ellipse id="Ellipse_51" data-name="Ellipse 51" class="cls-1" cx="210.35" cy="718.57" rx="210.35" ry="15.98"/><path id="Path_2505" data-name="Path 2505" class="cls-2" d="M172.91,335.71c36.61-15.57,82.2-5.71,126.73,1.14.42-8.29,5.44-18.38.18-24.17-6.4-7-5.8-14.41-2-21.84,9.84-19-4.25-39.2-18.49-56a31.53,31.53,0,0,0-26.3-11l-26.36,1.88a31.57,31.57,0,0,0-28,22.56h0c-6.29,8.56-9.66,17.1-7.54,25.59-9.43,6.44-11,14.22-6.78,23q5.4,8.28-.16,16.12a74.37,74.37,0,0,0-11.06,22Z" transform="translate(-12.12 -172.73)"/><path id="Path_2506" data-name="Path 2506" class="cls-2" d="M1042.86,807.73H296.75a25,25,0,0,1-25-25h0q405.71-47.15,796.15,0h0a25,25,0,0,1-25,25Z" transform="translate(-12.12 -172.73)"/><path id="Path_2507" data-name="Path 2507" class="cls-3" d="M1067.88,784.18l-796.15-1.47L364,627.46l.45-.74V284.56a31.61,31.61,0,0,1,31.61-31.63H939.13a31.62,31.62,0,0,1,31.63,31.61V629.08Z" transform="translate(-12.12 -172.73)"/><path id="Path_2508" data-name="Path 2508" class="cls-4" d="M395.35,275a10.31,10.31,0,0,0-10.3,10.31v312a10.3,10.3,0,0,0,10.3,10.3H944.26a10.3,10.3,0,0,0,10.3-10.3v-312a10.31,10.31,0,0,0-10.3-10.3Z" transform="translate(-12.12 -172.73)"/><path id="Path_2509" data-name="Path 2509" class="cls-2" d="M397.65,648.79a4.45,4.45,0,0,0-4,2.57l-28.43,61.81a4.42,4.42,0,0,0,2.17,5.86,4.48,4.48,0,0,0,1.84.4h597.9a4.41,4.41,0,0,0,4.41-4.42,4.49,4.49,0,0,0-.46-2l-30.9-61.81a4.41,4.41,0,0,0-3.95-2.44Z" transform="translate(-12.12 -172.73)"/><circle id="Ellipse_52" data-name="Ellipse 52" class="cls-4" cx="655.48" cy="90.5" r="6.62"/><path id="Path_2510" data-name="Path 2510" class="cls-2" d="M608.83,731.21a4.42,4.42,0,0,0-4.26,3.26L597.44,761a4.4,4.4,0,0,0,3.12,5.41,4.35,4.35,0,0,0,1.14.15H737.33a4.42,4.42,0,0,0,4.17-5.86l-9.17-26.48a4.42,4.42,0,0,0-4.17-3Z" transform="translate(-12.12 -172.73)"/><path id="Path_2511" data-name="Path 2511" class="cls-2" d="M970.75,621.57v5.89H364l.46-.73v-5.16Z" transform="translate(-12.12 -172.73)"/><circle id="Ellipse_53" data-name="Ellipse 53" class="cls-5" cx="941.71" cy="103.01" r="103.01"/><path id="Path_2512" data-name="Path 2512" class="cls-4" d="M996.51,320.62H911.15a5.88,5.88,0,0,1-5.88-5.88V263.23a5.89,5.89,0,0,1,5.88-5.89h85.36a5.9,5.9,0,0,1,5.88,5.89v51.51A5.88,5.88,0,0,1,996.51,320.62Zm-85.36-57.39v51.51h85.36V263.23Z" transform="translate(-12.12 -172.73)"/><path id="Path_2513" data-name="Path 2513" class="cls-4" d="M980.32,263.23h-53V239.68c0-17.05,11.14-29.43,26.49-29.43s26.49,12.38,26.49,29.43Zm-47.09-5.89h41.2V239.68c0-13.86-8.47-23.54-20.6-23.54s-20.6,9.68-20.6,23.54Z" transform="translate(-12.12 -172.73)"/><circle id="Ellipse_54" data-name="Ellipse 54" class="cls-4" cx="941.71" cy="114.79" r="5.89"/><path id="Path_2514" data-name="Path 2514" class="cls-6" d="M881.92,501.77H457.7a7.87,7.87,0,0,1-7.86-7.86V388.68a7.87,7.87,0,0,1,7.86-7.85H881.92a7.86,7.86,0,0,1,7.85,7.85V493.92A7.87,7.87,0,0,1,881.92,501.77ZM457.7,384a4.72,4.72,0,0,0-4.72,4.71V493.91a4.73,4.73,0,0,0,4.72,4.72H881.92a4.72,4.72,0,0,0,4.71-4.72V388.68a4.71,4.71,0,0,0-4.71-4.71Z" transform="translate(-12.12 -172.73)"/><circle id="Ellipse_55" data-name="Ellipse 55" class="cls-6" cx="511.49" cy="264.53" r="32"/><path id="Path_2515" data-name="Path 2515" class="cls-6" d="M597.52,415.92a5.34,5.34,0,0,0-.16,10.67H849a5.34,5.34,0,1,0,.16-10.67H597.52Z" transform="translate(-12.12 -172.73)"/><path id="Path_2516" data-name="Path 2516" class="cls-6" d="M597.52,447.93a5.33,5.33,0,1,0-.16,10.66H705.71a5.33,5.33,0,0,0,.16-10.66H597.52Z" transform="translate(-12.12 -172.73)"/><path id="Path_2517" data-name="Path 2517" class="cls-7" d="M363,450.08l-78.42,41.7-1-34.75c25.59-4.27,49.95-11.71,72.46-23.82l8.2-20.26a13.74,13.74,0,0,1,23.35-3.57h0a13.74,13.74,0,0,1-1.21,18.73Z" transform="translate(-12.12 -172.73)"/><path id="Path_2518" data-name="Path 2518" class="cls-2" d="M171.35,690.8h0a15.41,15.41,0,0,1,2-12.47l17.23-26.44a30.12,30.12,0,0,1,39.06-10.3h0c-7.24,12.33-6.24,23.13,2.5,32.53a156.23,156.23,0,0,0-37.2,25.35,15.41,15.41,0,0,1-21.41-4.05,15.58,15.58,0,0,1-2.13-4.63Z" transform="translate(-12.12 -172.73)"/><path id="Path_2519" data-name="Path 2519" class="cls-8" d="M366.53,656.23h0a29.55,29.55,0,0,1-25.12,14.35L227,671.45l-5-28.79,50.63-14.88L229.94,595l46.66-54.6,84.74,79a29.55,29.55,0,0,1,5.2,36.83Z" transform="translate(-12.12 -172.73)"/><path id="Path_2520" data-name="Path 2520" class="cls-9" d="M209.1,853.1H182.3c-24.07-165-48.57-330.36,23.82-392.1l85.37,13.9-10.92,72.46L232.92,602Z" transform="translate(-12.12 -172.73)"/><path id="Path_2521" data-name="Path 2521" class="cls-2" d="M232.66,890.47h0a15.38,15.38,0,0,1-12.47-2l-29.1-3.91a30.11,30.11,0,0,1-10.31-39.05h0c12.33,7.24,23.14,6.23,32.53-2.5,6.64,13.4,17.58,12.58,28,23.87a15.42,15.42,0,0,1-4.05,21.42,15.58,15.58,0,0,1-4.63,2.13Z" transform="translate(-12.12 -172.73)"/><path id="Path_2522" data-name="Path 2522" class="cls-7" d="M272.63,350.82,223,338.91c8.24-16.88,8.92-35.65,5-55.59l33.75-1C262.76,307.12,266,330.29,272.63,350.82Z" transform="translate(-12.12 -172.73)"/><path id="Path_2523" data-name="Path 2523" class="cls-4" d="M286.27,504.79c-36.13,24.62-61.66.84-81.14-35.85,2.71-22.45-1.68-49.31-9.8-78.5A53.45,53.45,0,0,1,228,326h0l42.68,17.87c36.25,29.54,43.38,61.54,29.78,95.29Z" transform="translate(-12.12 -172.73)"/><path id="Path_2524" data-name="Path 2524" class="cls-7" d="M182.3,375.63l-39.71,20.85,70.48,41.69,9.81,24.19a12.84,12.84,0,0,1-7.07,16.71c-.21.09-.43.17-.64.24h0a12.83,12.83,0,0,1-16.31-7.94,12.66,12.66,0,0,1-.68-3.43l-1-16.87-89.58-29.56a20.9,20.9,0,0,1-13.14-12.79h0a20.94,20.94,0,0,1,7.86-24.37l72-49.42Z" transform="translate(-12.12 -172.73)"/><path id="Path_2525" data-name="Path 2525" class="cls-4" d="M222,379.6c-16.56-7.25-31.62.63-50.62,6.95l-3-52.61c18.87-10.06,36.86-12.77,53.61-5Z" transform="translate(-12.12 -172.73)"/><circle id="Ellipse_56" data-name="Ellipse 56" class="cls-7" cx="229.69" cy="103.97" r="31.69"/><path id="Path_2526" data-name="Path 2526" class="cls-2" d="M279.72,272.7c-31.37,3.07-55.28-2.06-70.56-16.67V244.26h67.9Z" transform="translate(-12.12 -172.73)"/></svg>